<?xml version="1.0" encoding="utf-8"?>
<!-- Generator: Adobe Illustrator 16.0.1, SVG Export Plug-In . SVG Version: 6.00 Build 0)  -->
<!DOCTYPE svg PUBLIC "-//W3C//DTD SVG 1.1//EN" "http://www.w3.org/Graphics/SVG/1.1/DTD/svg11.dtd">
<svg version="1.1" xmlns="http://www.w3.org/2000/svg" xmlns:xlink="http://www.w3.org/1999/xlink" x="0px" y="0px"
	 width="1417.32px" height="1417.32px" viewBox="0 0 1417.32 1417.32" enable-background="new 0 0 1417.32 1417.32"
	 xml:space="preserve">
<g id="Layer_1" display="none">
	<g display="inline">
		<path fill="#4D98E0" d="M1372.849,708.66c0,366.82-297.366,664.188-664.188,664.188S44.472,1075.48,44.472,708.66
			c0-366.821,297.367-664.188,664.188-664.188C1075.48,44.472,1372.849,341.839,1372.849,708.66z M847.458,1267.49
			c2.149-0.581,4.281-1.148,6.396-1.702c74.63-19.433,142.465-52.333,203.504-98.7c7.279-5.527,14.478-11.299,21.592-17.314
			c78.646-66.429,135.846-148.312,171.602-245.649c1.624-4.43,3.009-8.928,4.152-13.495c0.424-0.093,0.659-0.313,0.706-0.665
			c0.046-0.369,0.073-0.576,0.082-0.622c22.404-68.79,31.705-139.394,27.904-211.81c-3.175-60.605-15.642-119.189-37.398-175.753
			C1217.65,428.09,1175.942,363,1120.874,306.51c-77.63-79.642-171.084-132.459-280.362-158.452
			c-9.09-2.159-18.118-4.051-27.088-5.675c-47.771-8.646-95.72-11.35-143.85-8.111c-80.915,5.444-157.322,27.11-229.222,64.998
			c-63.844,33.633-119.186,77.339-166.022,131.115c-52.679,60.478-91.074,129.396-115.185,206.758
			c-17.735,56.95-26.487,114.129-26.257,171.531c0.498,121.885,35.498,232.464,104.998,331.741
			c5.324,7.612,10.819,15.031,16.484,22.256c59.175,75.545,132.588,132.957,220.238,172.238c8.508,3.812,17.02,7.363,25.537,10.657
			c61.805,23.861,126.008,36.729,192.61,38.603C745.131,1285.646,796.698,1280.086,847.458,1267.49z"/>
		<circle fill="#2E7AE6" cx="708.688" cy="427.628" r="66.326"/>
		
			<linearGradient id="SVGID_1_" gradientUnits="userSpaceOnUse" x1="230.1836" y1="1115.127" x2="862.5132" y2="764.621" gradientTransform="matrix(1 0 0 -1 312.6602 1819.6602)">
			<stop  offset="0" style="stop-color:#D3DFF2"/>
			<stop  offset="0.1717" style="stop-color:#D3DFF2"/>
			<stop  offset="0.2" style="stop-color:#D3DFF2"/>
			<stop  offset="0.2002" style="stop-color:#DAE2F2"/>
			<stop  offset="0.2007" style="stop-color:#EBEBF2"/>
			<stop  offset="0.2014" style="stop-color:#F6EFF2"/>
			<stop  offset="0.2023" style="stop-color:#FDF1F2"/>
			<stop  offset="0.205" style="stop-color:#FEF2F2"/>
			<stop  offset="0.2522" style="stop-color:#FEF2F2"/>
			<stop  offset="0.26" style="stop-color:#FEF2F2"/>
			<stop  offset="0.26" style="stop-color:#D3DFF2"/>
			<stop  offset="0.3974" style="stop-color:#D3DFF2"/>
			<stop  offset="0.42" style="stop-color:#D3DFF2"/>
			<stop  offset="0.4202" style="stop-color:#DAE2F2"/>
			<stop  offset="0.4207" style="stop-color:#EBEBF2"/>
			<stop  offset="0.4214" style="stop-color:#F6EFF2"/>
			<stop  offset="0.4223" style="stop-color:#FDF1F2"/>
			<stop  offset="0.425" style="stop-color:#FEF2F2"/>
			<stop  offset="0.4894" style="stop-color:#FEF2F2"/>
			<stop  offset="0.5" style="stop-color:#FEF2F2"/>
			<stop  offset="0.5" style="stop-color:#F8F0F2"/>
			<stop  offset="0.5001" style="stop-color:#E7E8F3"/>
			<stop  offset="0.5003" style="stop-color:#DCE3F2"/>
			<stop  offset="0.5005" style="stop-color:#D5E0F2"/>
			<stop  offset="0.501" style="stop-color:#D3DFF2"/>
			<stop  offset="0.7062" style="stop-color:#D3DFF2"/>
			<stop  offset="0.74" style="stop-color:#D3DFF2"/>
			<stop  offset="0.741" style="stop-color:#FEF2F2"/>
			<stop  offset="0.8346" style="stop-color:#FEF2F2"/>
			<stop  offset="0.85" style="stop-color:#FEF2F2"/>
			<stop  offset="0.851" style="stop-color:#D3DFF2"/>
		</linearGradient>
		<path fill="url(#SVGID_1_)" d="M1254.702,890.628c-1.146,4.567-2.528,9.065-4.152,13.495
			c-35.756,97.339-92.956,179.222-171.602,245.648c-7.114,6.018-14.313,11.788-21.593,17.315
			c-61.039,46.367-128.873,79.268-203.504,98.7c-2.112,0.554-4.244,1.121-6.395,1.702c-51.757-3.985-100.066-17.505-144.93-40.555
			c-65.091-33.448-116.422-81.588-153.995-144.417c-4.726-7.907-9.136-16.005-13.232-24.291
			c-35.617-72.064-47.44-148.158-35.474-228.279c1.374-9.172,3.128-18.233,5.259-27.185c18.612-78.165,57.985-144.265,118.119-198.3
			c6.709,6.588,14.547,10.948,23.517,13.079c2.251,0.535,5.058,0.863,8.415,0.982c2.823,0.103,5.647,0.186,8.472,0.249
			c0.385,0.008,0.691,0.321,0.691,0.706l0.083,393.956c0,0.619-0.502,1.121-1.121,1.121c-11.902,0-23.524,0-34.866,0
			c-14.966,0-24.175,0.328-27.626,0.983c-12.198,2.314-21.619,8.576-28.264,18.782c-5.213,8-7.724,16.715-7.529,26.146
			c0.306,14.44,7.06,26.183,20.264,35.226c7.244,4.965,15.285,7.446,24.125,7.446c64.194,0,128.39,0,192.584,0
			c8.185,0,14.45-0.628,18.796-1.883c11.932-3.451,20.729-10.5,26.396-21.148c3.958-7.456,5.805-15.196,5.536-23.226
			c-0.286-8.526-2.984-16.378-8.097-23.558c-8.692-12.198-20.892-18.371-36.596-18.52c-17.412-0.167-35.373-0.25-53.884-0.25
			c-0.627,0-1.136-0.508-1.136-1.135l0,0c0-144.315,0-288.109,0-431.383c0-9.338-0.664-16.194-1.993-20.567
			c-3.071-10.086-9.213-18.326-18.422-24.721c38.387-15.594,78.294-24.604,119.726-27.031c47.271-2.768,93.273,2.936,138.009,17.107
			c8.618,2.73,17.292,5.873,26.021,9.426c76.394,31.068,136.453,81.187,180.183,150.354
			C1235.241,747.918,1254.646,815.923,1254.702,890.628z"/>
		<path fill="#2E7AE6" d="M732.55,536.754c9.209,6.396,15.351,14.635,18.422,24.721c1.329,4.373,1.993,11.229,1.993,20.567
			c0,143.273,0,287.067,0,431.383c0,0.627,0.509,1.136,1.135,1.136l0,0c18.512,0,36.473,0.082,53.885,0.25
			c15.705,0.146,27.902,6.319,36.596,18.519c5.111,7.18,7.811,15.031,8.097,23.558c0.269,8.028-1.578,15.771-5.536,23.227
			c-5.666,10.647-14.464,17.697-26.396,21.147c-4.347,1.255-10.611,1.884-18.796,1.884c-64.194,0-128.39,0-192.584,0
			c-8.84,0-16.881-2.482-24.125-7.446c-13.204-9.043-19.958-20.785-20.264-35.227c-0.193-9.431,2.316-18.146,7.529-26.146
			c6.645-10.206,16.064-16.467,28.264-18.782c3.451-0.655,12.66-0.982,27.626-0.982c11.342,0,22.964,0,34.866,0
			c0.619,0,1.121-0.503,1.121-1.121L664.3,619.482c0-0.386-0.308-0.699-0.691-0.706c-2.823-0.064-5.647-0.147-8.472-0.249
			c-3.357-0.12-6.164-0.448-8.415-0.983c-8.97-2.131-16.808-6.491-23.517-13.079c-8.857-10.76-12.521-22.409-10.989-34.949
			c1.153-9.467,4.867-17.743,11.143-24.83c6.984-7.897,15.939-12.596,26.865-14.091c2.325-0.313,9.231-0.47,20.721-0.47
			c6.93,0,13.854,0,20.774,0c13.038,0,19.954,0.041,20.748,0.124C719.488,531.015,726.183,533.184,732.55,536.754z"/>
	</g>
</g>
<g id="Layer_3_1_">
	<g>
		<path fill="#8A8A8A" d="M1372.849,708.66c0,366.82-297.366,664.188-664.188,664.188S44.472,1075.48,44.472,708.66
			c0-366.821,297.367-664.188,664.188-664.188C1075.48,44.472,1372.849,341.839,1372.849,708.66z M847.458,1267.49
			c2.149-0.581,4.281-1.148,6.396-1.702c74.63-19.433,142.465-52.333,203.504-98.7c7.279-5.527,14.478-11.299,21.592-17.314
			c78.646-66.429,135.846-148.312,171.602-245.649c1.624-4.43,3.009-8.928,4.152-13.495c0.424-0.093,0.659-0.313,0.706-0.665
			c0.046-0.369,0.073-0.576,0.082-0.622c22.404-68.79,31.705-139.394,27.904-211.81c-3.175-60.605-15.642-119.189-37.398-175.753
			C1217.65,428.09,1175.942,363,1120.874,306.51c-77.63-79.642-171.084-132.459-280.362-158.452
			c-9.09-2.159-18.118-4.051-27.088-5.675c-47.771-8.646-95.72-11.35-143.85-8.111c-80.915,5.444-157.322,27.11-229.222,64.998
			c-63.844,33.633-119.186,77.339-166.022,131.115c-52.679,60.478-91.074,129.396-115.185,206.758
			c-17.735,56.95-26.487,114.129-26.257,171.531c0.498,121.885,35.498,232.464,104.998,331.741
			c5.324,7.612,10.819,15.031,16.484,22.256c59.175,75.545,132.588,132.957,220.238,172.238c8.508,3.812,17.02,7.363,25.537,10.657
			c61.805,23.861,126.008,36.729,192.61,38.603C745.131,1285.646,796.698,1280.086,847.458,1267.49z"/>
		<circle fill="#4E4E4E" cx="708.66" cy="427.66" r="66.326"/>
		
			<linearGradient id="SVGID_2_" gradientUnits="userSpaceOnUse" x1="230.1836" y1="1115.127" x2="862.5132" y2="764.621" gradientTransform="matrix(1 0 0 -1 312.6602 1819.6602)">
			<stop  offset="0" style="stop-color:#D3DFF2"/>
			<stop  offset="0.1717" style="stop-color:#D3DFF2"/>
			<stop  offset="0.2" style="stop-color:#D3DFF2"/>
			<stop  offset="0.2002" style="stop-color:#DAE2F2"/>
			<stop  offset="0.2007" style="stop-color:#EBEBF2"/>
			<stop  offset="0.2014" style="stop-color:#F6EFF2"/>
			<stop  offset="0.2023" style="stop-color:#FDF1F2"/>
			<stop  offset="0.205" style="stop-color:#FEF2F2"/>
			<stop  offset="0.2522" style="stop-color:#FEF2F2"/>
			<stop  offset="0.26" style="stop-color:#FEF2F2"/>
			<stop  offset="0.26" style="stop-color:#D3DFF2"/>
			<stop  offset="0.3974" style="stop-color:#D3DFF2"/>
			<stop  offset="0.42" style="stop-color:#D3DFF2"/>
			<stop  offset="0.4202" style="stop-color:#DAE2F2"/>
			<stop  offset="0.4207" style="stop-color:#EBEBF2"/>
			<stop  offset="0.4214" style="stop-color:#F6EFF2"/>
			<stop  offset="0.4223" style="stop-color:#FDF1F2"/>
			<stop  offset="0.425" style="stop-color:#FEF2F2"/>
			<stop  offset="0.4894" style="stop-color:#FEF2F2"/>
			<stop  offset="0.5" style="stop-color:#FEF2F2"/>
			<stop  offset="0.5" style="stop-color:#F8F0F2"/>
			<stop  offset="0.5001" style="stop-color:#E7E8F3"/>
			<stop  offset="0.5003" style="stop-color:#DCE3F2"/>
			<stop  offset="0.5005" style="stop-color:#D5E0F2"/>
			<stop  offset="0.501" style="stop-color:#D3DFF2"/>
			<stop  offset="0.7062" style="stop-color:#D3DFF2"/>
			<stop  offset="0.74" style="stop-color:#D3DFF2"/>
			<stop  offset="0.741" style="stop-color:#FEF2F2"/>
			<stop  offset="0.8346" style="stop-color:#FEF2F2"/>
			<stop  offset="0.85" style="stop-color:#FEF2F2"/>
			<stop  offset="0.851" style="stop-color:#D3DFF2"/>
		</linearGradient>
		<path fill="url(#SVGID_2_)" d="M1254.702,890.628c-1.146,4.567-2.528,9.065-4.152,13.495
			c-35.756,97.339-92.956,179.222-171.602,245.648c-7.114,6.018-14.313,11.788-21.593,17.315
			c-61.039,46.367-128.873,79.268-203.504,98.7c-2.112,0.554-4.244,1.121-6.395,1.702c-51.757-3.985-100.066-17.505-144.93-40.555
			c-65.091-33.448-116.422-81.588-153.995-144.417c-4.726-7.907-9.136-16.005-13.232-24.291
			c-35.617-72.064-47.44-148.158-35.474-228.279c1.374-9.172,3.128-18.233,5.259-27.185c18.612-78.165,57.985-144.265,118.119-198.3
			c6.709,6.588,14.547,10.948,23.517,13.079c2.251,0.535,5.058,0.863,8.415,0.982c2.823,0.103,5.647,0.186,8.472,0.249
			c0.385,0.008,0.691,0.321,0.691,0.706l0.083,393.956c0,0.619-0.502,1.121-1.121,1.121c-11.902,0-23.524,0-34.866,0
			c-14.966,0-24.175,0.328-27.626,0.983c-12.198,2.314-21.619,8.576-28.264,18.782c-5.213,8-7.724,16.715-7.529,26.146
			c0.306,14.44,7.06,26.183,20.264,35.226c7.244,4.965,15.285,7.446,24.125,7.446c64.194,0,128.39,0,192.584,0
			c8.185,0,14.45-0.628,18.796-1.883c11.932-3.451,20.729-10.5,26.396-21.148c3.958-7.456,5.805-15.196,5.536-23.226
			c-0.286-8.526-2.984-16.378-8.097-23.558c-8.692-12.198-20.892-18.371-36.596-18.52c-17.412-0.167-35.373-0.25-53.884-0.25
			c-0.627,0-1.136-0.508-1.136-1.135l0,0c0-144.315,0-288.109,0-431.383c0-9.338-0.664-16.194-1.993-20.567
			c-3.071-10.086-9.213-18.326-18.422-24.721c38.387-15.594,78.294-24.604,119.726-27.031c47.271-2.768,93.273,2.936,138.009,17.107
			c8.618,2.73,17.292,5.873,26.021,9.426c76.394,31.068,136.453,81.187,180.183,150.354
			C1235.241,747.918,1254.646,815.923,1254.702,890.628z"/>
		<path fill="#4E4E4E" d="M732.55,536.754c9.209,6.396,15.351,14.635,18.422,24.721c1.329,4.373,1.993,11.229,1.993,20.567
			c0,143.273,0,287.067,0,431.383c0,0.627,0.509,1.136,1.135,1.136l0,0c18.512,0,36.473,0.082,53.885,0.25
			c15.705,0.146,27.902,6.319,36.596,18.519c5.111,7.18,7.811,15.031,8.097,23.558c0.269,8.028-1.578,15.771-5.536,23.227
			c-5.666,10.647-14.464,17.697-26.396,21.147c-4.347,1.255-10.611,1.884-18.796,1.884c-64.194,0-128.39,0-192.584,0
			c-8.84,0-16.881-2.482-24.125-7.446c-13.204-9.043-19.958-20.785-20.264-35.227c-0.193-9.431,2.316-18.146,7.529-26.146
			c6.645-10.206,16.064-16.467,28.264-18.782c3.451-0.655,12.66-0.982,27.626-0.982c11.342,0,22.964,0,34.866,0
			c0.619,0,1.121-0.503,1.121-1.121L664.3,619.482c0-0.386-0.308-0.699-0.691-0.706c-2.823-0.064-5.647-0.147-8.472-0.249
			c-3.357-0.12-6.164-0.448-8.415-0.983c-8.97-2.131-16.808-6.491-23.517-13.079c-8.857-10.76-12.521-22.409-10.989-34.949
			c1.153-9.467,4.867-17.743,11.143-24.83c6.984-7.897,15.939-12.596,26.865-14.091c2.325-0.313,9.231-0.47,20.721-0.47
			c6.93,0,13.854,0,20.774,0c13.038,0,19.954,0.041,20.748,0.124C719.488,531.015,726.183,533.184,732.55,536.754z"/>
	</g>
</g>
<g id="Layer_2_1_" display="none">
	<g id="Layer_3" display="inline">
		<g>
			<circle fill="#4487C7" cx="-182.131" cy="1034.143" r="27.5"/>
			<circle fill="#3266AF" cx="-182.131" cy="1100.143" r="27.5"/>
		</g>
		<g>
			
				<linearGradient id="SVGID_3_" gradientUnits="userSpaceOnUse" x1="-456.6235" y1="719.5176" x2="-401.6235" y2="719.5176" gradientTransform="matrix(1 0 0 -1 312.6602 1819.6602)">
				<stop  offset="0" style="stop-color:#D3DFF2"/>
				<stop  offset="0.1717" style="stop-color:#D3DFF2"/>
				<stop  offset="0.2" style="stop-color:#D3DFF2"/>
				<stop  offset="0.2002" style="stop-color:#DAE2F2"/>
				<stop  offset="0.2007" style="stop-color:#EBEBF2"/>
				<stop  offset="0.2014" style="stop-color:#F6EFF2"/>
				<stop  offset="0.2023" style="stop-color:#FDF1F2"/>
				<stop  offset="0.205" style="stop-color:#FEF2F2"/>
				<stop  offset="0.2522" style="stop-color:#FEF2F2"/>
				<stop  offset="0.26" style="stop-color:#FEF2F2"/>
				<stop  offset="0.26" style="stop-color:#D3DFF2"/>
				<stop  offset="0.3974" style="stop-color:#D3DFF2"/>
				<stop  offset="0.42" style="stop-color:#D3DFF2"/>
				<stop  offset="0.4202" style="stop-color:#DAE2F2"/>
				<stop  offset="0.4207" style="stop-color:#EBEBF2"/>
				<stop  offset="0.4214" style="stop-color:#F6EFF2"/>
				<stop  offset="0.4223" style="stop-color:#FDF1F2"/>
				<stop  offset="0.425" style="stop-color:#FEF2F2"/>
				<stop  offset="0.4894" style="stop-color:#FEF2F2"/>
				<stop  offset="0.5" style="stop-color:#FEF2F2"/>
				<stop  offset="0.5" style="stop-color:#F8F0F2"/>
				<stop  offset="0.5001" style="stop-color:#E7E8F3"/>
				<stop  offset="0.5003" style="stop-color:#DCE3F2"/>
				<stop  offset="0.5005" style="stop-color:#D5E0F2"/>
				<stop  offset="0.501" style="stop-color:#D3DFF2"/>
				<stop  offset="0.7062" style="stop-color:#D3DFF2"/>
				<stop  offset="0.74" style="stop-color:#D3DFF2"/>
				<stop  offset="0.741" style="stop-color:#FEF2F2"/>
				<stop  offset="0.8346" style="stop-color:#FEF2F2"/>
				<stop  offset="0.85" style="stop-color:#FEF2F2"/>
				<stop  offset="0.851" style="stop-color:#D3DFF2"/>
			</linearGradient>
			<circle fill="url(#SVGID_3_)" cx="-116.463" cy="1100.143" r="27.5"/>
			<circle fill="#4E4E4E" cx="-116.463" cy="1034.143" r="27.5"/>
		</g>
	</g>
	<g id="Layer_4_2_" display="inline">
		<g>
			<circle fill="#4487C7" cx="-182.131" cy="1173.989" r="27.5"/>
			<circle fill="#3266AF" cx="-182.131" cy="1239.989" r="27.5"/>
		</g>
		<g>
			<circle fill="#8A8A8A" cx="-116.463" cy="1239.989" r="27.5"/>
			<circle fill="#4E4E4E" cx="-116.463" cy="1173.989" r="27.5"/>
		</g>
	</g>
	<g id="Layer_4" display="inline">
		<g>
			<circle fill="#4487C7" cx="-182.131" cy="1311.629" r="27.5"/>
			<circle fill="#3266AF" cx="-182.131" cy="1377.629" r="27.5"/>
		</g>
		<g>
			<circle fill="#D1D1D1" cx="-116.463" cy="1377.629" r="27.5"/>
			<circle fill="#4E4E4E" cx="-116.463" cy="1311.629" r="27.5"/>
		</g>
	</g>
</g>
</svg>
