<?xml version="1.0" encoding="utf-8"?>
<!-- Generator: Adobe Illustrator 16.0.1, SVG Export Plug-In . SVG Version: 6.00 Build 0)  -->
<!DOCTYPE svg PUBLIC "-//W3C//DTD SVG 1.1//EN" "http://www.w3.org/Graphics/SVG/1.1/DTD/svg11.dtd">
<svg version="1.1" xmlns="http://www.w3.org/2000/svg" xmlns:xlink="http://www.w3.org/1999/xlink" x="0px" y="0px"
	 width="1417.32px" height="1417.32px" viewBox="0 0 1417.32 1417.32" enable-background="new 0 0 1417.32 1417.32"
	 xml:space="preserve">
<g id="Layer_1">
	<g id="Layer_4" display="none">
		<g display="inline">
			<circle fill="#4487C7" cx="-290.29" cy="1246.869" r="27.5"/>
			<circle fill="#3266AF" cx="-290.29" cy="1312.869" r="27.5"/>
		</g>
		<g display="inline">
			<circle fill="#D1D1D1" cx="-224.623" cy="1312.869" r="27.5"/>
			<circle fill="#4E4E4E" cx="-224.623" cy="1246.869" r="27.5"/>
		</g>
	</g>
</g>
<g id="Layer_2">
	<path fill="#19A3BF" d="M865.292,52.535H78.557c-24.828,0-44.956,20.128-44.956,44.957c0,24.828,20.128,44.956,44.956,44.956
		h786.735c236.119-0.356,427.821,190.768,428.178,426.889c0.015,10.416-0.35,20.828-1.094,31.216
		c-20.438,227.679-212.899,401.129-441.471,397.863H165.772l147.905-206.799c14.897-20.235,10.57-48.716-9.666-63.613
		c-20.234-14.897-48.715-10.57-63.612,9.666l0,0L39.445,1018.646c-9.092,13.606-9.092,31.35,0,44.956l200.954,282.324
		c14.413,20.218,42.485,24.923,62.703,10.511c0.078-0.057,0.157-0.113,0.235-0.17c20.026-14.454,24.644-42.355,10.34-62.489
		l-147.905-207.248h684.233c271.21,4.525,501.539-197.597,532.283-467.095c27.313-284.471-181.153-537.22-465.623-564.533
		C899.591,53.261,882.444,52.471,865.292,52.535z"/>
</g>
</svg>
