<?xml version="1.0" encoding="utf-8"?>
<!-- Generator: Adobe Illustrator 16.0.1, SVG Export Plug-In . SVG Version: 6.00 Build 0)  -->
<!DOCTYPE svg PUBLIC "-//W3C//DTD SVG 1.1//EN" "http://www.w3.org/Graphics/SVG/1.1/DTD/svg11.dtd">
<svg version="1.1" id="Layer_1" xmlns="http://www.w3.org/2000/svg" xmlns:xlink="http://www.w3.org/1999/xlink" x="0px" y="0px"
	 width="1417.32px" height="1417.32px" viewBox="0 0 1417.32 1417.32" enable-background="new 0 0 1417.32 1417.32"
	 xml:space="preserve">
<g id="Layer_4" display="none">
	<g display="inline">
		<circle fill="#4487C7" cx="-290.29" cy="1246.869" r="27.5"/>
		<circle fill="#3266AF" cx="-290.29" cy="1312.869" r="27.5"/>
	</g>
	<g display="inline">
		<circle fill="#D1D1D1" cx="-224.623" cy="1312.869" r="27.5"/>
		<circle fill="#4E4E4E" cx="-224.623" cy="1246.869" r="27.5"/>
	</g>
</g>
<g>
	<path fill="#D9DCE1" d="M773.087,1156.213l-16.03-0.503L554.638,70.929c-0.261-1.286,0.57-2.54,1.856-2.801
		c0.016-0.004,0.034-0.007,0.051-0.01l114.663-21.521c0.794-0.143,1.555,0.38,1.707,1.171l202.887,1086.556
		c0.16,0.911-0.45,1.786-1.373,1.975L773.087,1156.213z"/>
	<path fill="#D9DCE1" d="M360.722,353.303l-0.669,107.065l-213.529,0.035l0.067-265.842c0-0.942,0.75-1.707,1.673-1.707l0,0h210.45
		c0.924,0,1.673,0.734,1.673,1.641l0,0L360.722,353.303z"/>
	<path fill="#8A8A8A" d="M360.484,353.605h238.228c1.443,0,2.612,1.169,2.612,2.61v800.499l-241.008-0.302l-0.1-535.062
		l-0.401-160.682L360.484,353.605z"/>
	<path fill="#8A8A8A" d="M1001.142,566.765l-103.384,56.663c-0.999,0.551-1.372,1.791-0.837,2.778l54.922,102.346
		c0.571,1.078,1.908,1.49,2.985,0.917c0.009-0.004,0.019-0.01,0.027-0.015l104.254-55.69l210.417,391.013
		c0.457,0.824,0.161,1.863-0.663,2.322c-0.014,0.007-0.027,0.014-0.04,0.021l-154.357,83.337c-1.058,0.554-2.356,0.166-2.912-0.871
		L759.433,496.112c-0.645-1.201-0.195-2.697,1.004-3.346l153.185-82.534c1.202-0.644,2.698-0.194,3.348,1.005L1001.142,566.765z"/>
	<path fill="#4E4E4E" d="M146.523,460.403l213.529-0.035l0.401,160.683H146.523V460.403z"/>
	<path fill="#4E4E4E" d="M1001.142,566.765l57.968,106.999l-104.254,55.69c-1.07,0.588-2.414,0.194-2.999-0.876
		c-0.005-0.008-0.009-0.019-0.014-0.026l-54.922-102.346c-0.535-0.987-0.162-2.228,0.837-2.778L1001.142,566.765z"/>
	<path fill="#D9DCE1" d="M146.523,621.051h213.931l0.101,535.061l-214.165,0.302L146.523,621.051z"/>
	<path fill="#4E4E4E" d="M773.087,1156.213l575.459,0.334c1.496,0,2.71,1.215,2.71,2.711v128.419c0,1.516-1.244,2.745-2.778,2.745
		l-209.547,0.199c-0.924,0-1.673,0.751-1.673,1.675l-0.168,75.772c-0.018,1.483-1.227,2.678-2.71,2.678h-74.936
		c-1.498,0-2.712-1.214-2.712-2.71v-73.397c0-2.33-1.887-4.217-4.216-4.217l0,0l-690.054,0.199c-0.925,0-1.674,0.766-1.674,1.709
		l0,0l-0.402,76.542c0,0.924-0.733,1.672-1.64,1.672l0,0l-75.906,0.168c-1.405,0.02-2.559-1.12-2.578-2.543c0-0.013,0-0.022,0-0.034
		v-73.496c0-2.33-1.888-4.217-4.216-4.217l0,0H68.775c-1.497,0-2.711-1.215-2.711-2.713l0.201-129.289
		c0-0.923,0.734-1.672,1.64-1.672l0,0l78.484-0.335l214.165-0.302l241.007,0.302l155.496-0.703L773.087,1156.213z"/>
	<rect x="410.791" y="484.257" fill="#FFFFFF" width="140.022" height="58.637"/>
	<rect x="410.559" y="661.855" fill="#FFFFFF" width="140.022" height="58.638"/>
</g>
</svg>
