<?xml version="1.0" encoding="utf-8"?>
<!-- Generator: Adobe Illustrator 16.0.1, SVG Export Plug-In . SVG Version: 6.00 Build 0)  -->
<!DOCTYPE svg PUBLIC "-//W3C//DTD SVG 1.1//EN" "http://www.w3.org/Graphics/SVG/1.1/DTD/svg11.dtd">
<svg version="1.1" xmlns="http://www.w3.org/2000/svg" xmlns:xlink="http://www.w3.org/1999/xlink" x="0px" y="0px"
	 width="1417.32px" height="1417.32px" viewBox="0 0 1417.32 1417.32" enable-background="new 0 0 1417.32 1417.32"
	 xml:space="preserve">
<g id="Layer_2">
	<path id="XMLID_1607_" fill="#9FC6EA" d="M1084.61,923.833c11.938,68.293-8.646,141.461-61.775,194.588
		c-76.369,76.369-204.553,56.525-342.07-16.695L150.018,571.007c-74.068-138.56-94.652-267.674-18.477-343.878
		c53.129-53.13,126.295-73.713,194.589-61.779l176.358,176.359c11.961,68.321-8.648,141.459-61.778,194.588
		c-6.214,6.214-12.646,12.018-19.407,17.245L696.312,828.55c5.336-6.654,11.031-13.193,17.244-19.408
		c53.129-53.129,126.324-73.686,194.672-61.695L1084.61,923.833z"/>
	<g id="XMLID_8588_">
		<path id="XMLID_1606_" fill="#297FC2" d="M1231.192,1010.604c11.336,0,20.527,9.189,20.527,20.527
			c0,11.34-9.191,20.527-20.527,20.527c-11.34,0-20.529-9.188-20.529-20.527C1210.663,1019.794,1219.853,1010.604,1231.192,1010.604
			z"/>
		<circle id="XMLID_1605_" fill="#297FC2" cx="738.491" cy="223.653" r="20.529"/>
		<circle id="XMLID_1604_" fill="#297FC2" cx="683.747" cy="634.235" r="20.528"/>
		<path id="XMLID_1603_" fill="#297FC2" d="M533.201,1174.837c11.338,0,20.527,9.189,20.527,20.529
			c0,11.336-9.189,20.527-20.527,20.527c-11.34,0-20.529-9.191-20.529-20.527C512.672,1184.026,521.861,1174.837,533.201,1174.837z"
			/>
		<circle id="XMLID_1602_" fill="#297FC2" cx="464.77" cy="114.165" r="20.529"/>
		<path id="XMLID_1601_" fill="#297FC2" d="M204.732,777.938c11.34,0,20.531,9.191,20.531,20.529s-9.191,20.529-20.531,20.529
			c-11.336,0-20.527-9.191-20.527-20.529S193.396,777.938,204.732,777.938z"/>
		<path id="XMLID_8730_" fill="#297FC2" d="M895.575,1180.681c-0.01,0-0.01,0-0.014,0c-63.459-0.002-137.896-22.504-221.232-66.879
			c-1.193-0.633-2.289-1.439-3.244-2.398l-530.746-530.72c-0.953-0.953-1.757-2.038-2.394-3.227
			c-39.691-74.255-62.284-141.764-67.148-200.646c-5.482-66.363,11.699-119.979,51.063-159.358
			c44.545-44.542,103.617-69.072,166.336-69.072c13.486,0,27.041,1.173,40.288,3.49c2.774,0.484,5.329,1.811,7.321,3.804
			l176.359,176.358c1.99,1.99,3.318,4.548,3.803,7.317c13.161,75.158-11.356,152.402-65.582,206.627
			c-2.99,2.991-5.93,5.795-8.854,8.441L695.468,808.36c2.807-3.135,5.602-6.084,8.41-8.895
			c44.504-44.502,103.545-69.016,166.242-69.016c13.545,0,27.158,1.188,40.467,3.518c2.77,0.488,5.322,1.816,7.313,3.805
			l176.387,176.385c1.99,1.992,3.318,4.547,3.807,7.322c13.135,75.178-11.383,152.418-65.586,206.621
			C997.622,1162.987,951.546,1180.681,895.575,1180.681z M688.991,1090.597c78.596,41.611,148.092,62.711,206.572,62.713
			c0.002,0,0.01,0,0.012,0c48.449,0,88.006-14.992,117.582-44.564c46.891-46.895,68.65-113.275,58.664-178.348L901.659,760.235
			c-10.404-1.602-20.992-2.414-31.533-2.414c-55.389,0-107.559,21.664-146.891,61c-5.342,5.34-10.658,11.326-16.25,18.297
			c-2.434,3.031-6.045,4.889-9.928,5.1c-3.883,0.199-7.672-1.238-10.426-3.99L411.623,563.221c-2.779-2.781-4.228-6.62-3.979-10.547
			c0.248-3.924,2.174-7.551,5.284-9.957c5.96-4.61,11.881-9.874,18.103-16.096c46.912-46.912,68.672-113.299,58.667-178.345
			L319.565,178.144c-10.353-1.587-20.882-2.39-31.368-2.39c-55.41,0-107.607,21.682-146.979,61.057
			c-86.885,86.917-25.351,240.752,19.92,325.962L688.991,1090.597z"/>
		<path id="XMLID_1598_" fill="#297FC2" d="M410.928,449.555c-3.503,0-7.006-1.336-9.678-4.01L225.248,269.519
			c-5.348-5.347-5.348-14.013,0-19.355c5.345-5.344,14.011-5.344,19.354,0l176.004,176.029c5.345,5.347,5.345,14.013-0.003,19.355
			C417.933,448.219,414.43,449.555,410.928,449.555z"/>
		<path id="XMLID_1597_" fill="#297FC2" d="M1003.181,1041.778c-3.504,0-7.004-1.336-9.678-4.01L805.372,849.644
			c-5.344-5.344-5.344-14.01,0-19.354c5.346-5.346,14.01-5.346,19.355,0l188.129,188.127c5.348,5.344,5.348,14.01,0,19.352
			C1010.185,1040.442,1006.685,1041.778,1003.181,1041.778z"/>
		<path id="XMLID_1596_" fill="#297FC2" d="M1071.856,1351.058c-22.473,0-43.592-8.742-59.465-24.621l-36.908-36.906l-54.564,54.564
			c-5.35,5.35-14.012,5.346-19.357,0c-5.346-5.344-5.346-14.01,0-19.354l64.242-64.242c5.344-5.346,14.01-5.346,19.355,0
			l46.588,46.588c10.703,10.703,24.949,16.6,40.109,16.6c15.145,0,29.381-5.896,40.088-16.6
			c10.703-10.709,16.602-24.947,16.602-40.1c0-15.154-5.898-29.395-16.602-40.098l-98.785-98.789c-5.346-5.344-5.346-14.01,0-19.354
			c5.348-5.344,14.012-5.342,19.352,0l98.789,98.791c15.875,15.871,24.619,36.988,24.619,59.451
			c0,22.461-8.744,43.576-24.619,59.451C1115.423,1342.313,1094.312,1351.058,1071.856,1351.058z"/>
		<path id="XMLID_8713_" fill="#297FC2" d="M1079.739,552.393c-40.266,0-78.145-15.682-106.65-44.157
			c-28.484-28.521-44.17-66.396-44.17-106.663c0-40.268,15.686-78.143,44.162-106.653c28.514-28.486,66.391-44.168,106.658-44.168
			c83.182,0,150.852,67.658,150.852,150.821c0,40.28-15.693,78.157-44.191,106.658
			C1157.884,536.711,1120.011,552.393,1079.739,552.393z M1079.739,278.123c-32.963,0-63.965,12.838-87.303,36.151
			c-23.303,23.328-36.145,54.336-36.145,87.298c0,32.961,12.842,63.969,36.152,87.306c23.33,23.301,54.334,36.143,87.295,36.143
			c32.965,0,63.971-12.838,87.309-36.153c23.322-23.321,36.164-54.326,36.164-87.298
			C1203.218,333.503,1147.823,278.123,1079.739,278.123z"/>
		<path id="XMLID_8705_" fill="#297FC2" d="M1079.739,156.919c-24.992,0-45.326-20.335-45.326-45.328s20.334-45.328,45.326-45.328
			c25.012,0,45.357,20.335,45.357,45.328S1104.749,156.919,1079.739,156.919z M1079.739,93.636c-9.898,0-17.955,8.055-17.955,17.955
			s8.057,17.956,17.955,17.956c9.92,0,17.986-8.056,17.986-17.956S1089.659,93.636,1079.739,93.636z"/>
		<path id="XMLID_8697_" fill="#297FC2" d="M1079.739,668.45c-24.992,0-45.326-20.335-45.326-45.328
			c0-24.994,20.334-45.329,45.326-45.329c25.012,0,45.357,20.335,45.357,45.329C1125.097,648.115,1104.749,668.45,1079.739,668.45z
			 M1079.739,605.166c-9.898,0-17.955,8.057-17.955,17.956c0,9.901,8.057,17.956,17.955,17.956c9.92,0,17.986-8.055,17.986-17.956
			C1097.726,613.223,1089.659,605.166,1079.739,605.166z"/>
		<path id="XMLID_1589_" fill="#297FC2" d="M1079.739,605.166c-7.557,0-13.684-6.129-13.684-13.687v-52.773
			c0-7.558,6.127-13.686,13.684-13.686c7.559,0,13.688,6.128,13.688,13.686v52.773
			C1093.427,599.037,1087.298,605.166,1079.739,605.166z"/>
		<path id="XMLID_1588_" fill="#297FC2" d="M1079.739,278.123c-7.557,0-13.684-6.129-13.684-13.687V143.233
			c0-7.558,6.127-13.687,13.684-13.687c7.559,0,13.688,6.129,13.688,13.687v121.203
			C1093.427,271.994,1087.298,278.123,1079.739,278.123z"/>
		<path id="XMLID_8683_" fill="#297FC2" d="M1283.876,286.985c-17,0-32.986-6.621-45.01-18.646s-18.646-28.004-18.646-45.003
			c0-16.994,6.623-32.978,18.646-45.002c12.023-12.022,28.01-18.646,45.01-18.646c17.01,0,32.988,6.623,45,18.651
			c12.018,12.016,18.643,27.999,18.643,44.994s-6.625,32.979-18.648,45.003C1316.864,280.36,1300.886,286.985,1283.876,286.985z
			 M1283.876,187.062c-9.688,0-18.803,3.774-25.654,10.628c-6.854,6.854-10.629,15.964-10.629,25.646
			c0,9.685,3.775,18.794,10.629,25.647c6.852,6.854,15.967,10.629,25.654,10.629s18.789-3.771,25.631-10.623
			c6.857-6.859,10.635-15.969,10.635-25.653s-3.773-18.791-10.625-25.646C1302.669,190.836,1293.563,187.062,1283.876,187.062z"/>
		<path id="XMLID_8675_" fill="#297FC2" d="M923.093,603.557c-12.109,0-23.49-4.711-32.045-13.267
			c-8.574-8.576-13.293-19.975-13.287-32.092c0.008-12.104,4.73-23.479,13.299-32.028c8.535-8.555,19.92-13.278,32.033-13.278
			c12.107,0,23.496,4.719,32.064,13.286c17.654,17.655,17.66,46.41,0.01,64.098C946.577,598.852,935.196,603.557,923.093,603.557z
			 M923.093,540.268c-4.789,0-9.295,1.869-12.68,5.26c-3.41,3.403-5.279,7.902-5.283,12.689c-0.002,4.801,1.871,9.318,5.273,12.722
			c3.387,3.384,7.891,5.249,12.689,5.249c4.803,0,9.322-1.869,12.719-5.261c6.979-6.993,6.988-18.395-0.01-25.388
			C932.403,542.139,927.892,540.268,923.093,540.268z"/>
		<path id="XMLID_1583_" fill="#297FC2" d="M945.481,549.546c-3.504,0-7.002-1.336-9.674-4.006
			c-5.35-5.342-5.352-14.007-0.006-19.354l37.279-37.308c5.344-5.346,14.012-5.348,19.355-0.006
			c5.348,5.344,5.352,14.009,0.008,19.355l-37.279,37.309C952.487,548.207,948.983,549.546,945.481,549.546z"/>
		<path id="XMLID_1582_" fill="#297FC2" d="M1189.669,331.226c-3.504,0-7.006-1.336-9.68-4.007c-5.346-5.347-5.346-14.013,0-19.355
			l58.877-58.879c5.346-5.342,14.01-5.342,19.355,0c5.346,5.347,5.346,14.013,0,19.355l-58.879,58.879
			C1196.671,329.89,1193.171,331.226,1189.669,331.226z"/>
		<path id="XMLID_8661_" fill="#297FC2" d="M1301.292,446.899c-24.994,0-45.328-20.334-45.328-45.327
			c0-24.994,20.334-45.329,45.328-45.329c24.992,0,45.328,20.335,45.328,45.329C1346.62,426.565,1326.284,446.899,1301.292,446.899z
			 M1301.292,383.615c-9.902,0-17.957,8.057-17.957,17.957s8.055,17.956,17.957,17.956c9.9,0,17.957-8.056,17.957-17.956
			S1311.192,383.615,1301.292,383.615z"/>
		<path id="XMLID_8653_" fill="#297FC2" d="M827.505,459.382c-31.332,0-56.822-25.504-56.822-56.852
			c0-31.35,25.49-56.852,56.822-56.852c31.35,0,56.854,25.502,56.854,56.852C884.358,433.878,858.854,459.382,827.505,459.382z
			 M827.505,373.05c-16.238,0-29.449,13.226-29.449,29.48c0,16.256,13.211,29.479,29.449,29.479c16.254,0,29.48-13.224,29.48-29.479
			C856.985,386.275,843.759,373.05,827.505,373.05z"/>
		<path id="XMLID_1577_" fill="#297FC2" d="M942.606,416.217h-71.936c-7.557,0-13.686-6.13-13.686-13.687
			c0-7.558,6.129-13.687,13.686-13.687h71.936c7.557,0,13.686,6.129,13.686,13.687C956.292,410.087,950.163,416.217,942.606,416.217
			z"/>
		<path id="XMLID_1576_" fill="#297FC2" d="M1269.649,415.258h-52.746c-7.557,0-13.686-6.129-13.686-13.686
			c0-7.558,6.129-13.687,13.686-13.687h52.746c7.559,0,13.686,6.129,13.686,13.687
			C1283.335,409.129,1277.208,415.258,1269.649,415.258z"/>
		<path id="XMLID_8639_" fill="#297FC2" d="M923.093,290.249c-12.113,0-23.498-4.725-32.057-13.297
			c-8.549-8.529-13.268-19.903-13.275-32.007c-0.012-12.117,4.713-23.516,13.283-32.091c8.555-8.555,19.938-13.268,32.047-13.268
			c12.102,0,23.486,4.708,32.055,13.257c17.672,17.709,17.666,46.464,0.012,64.119C946.589,285.53,935.2,290.249,923.093,290.249z
			 M923.093,226.956c-4.799,0-9.303,1.864-12.689,5.25c-3.404,3.402-5.275,7.919-5.273,12.72c0.004,4.787,1.873,9.287,5.264,12.669
			c3.404,3.413,7.904,5.282,12.699,5.282c4.797,0,9.309-1.872,12.709-5.271c6.998-6.993,6.988-18.395-0.01-25.41
			C932.415,228.825,927.896,226.956,923.093,226.956z"/>
		<path id="XMLID_8631_" fill="#297FC2" d="M1236.396,603.557c-12.109,0-23.488-4.711-32.045-13.267
			c-8.578-8.576-13.295-19.975-13.291-32.092c0.008-12.104,4.732-23.479,13.299-32.028c8.537-8.555,19.918-13.278,32.033-13.278
			c12.109,0,23.498,4.719,32.064,13.286c8.557,8.541,13.281,19.914,13.285,32.019c0.008,12.117-4.713,23.515-13.285,32.09
			C1259.882,598.852,1248.501,603.557,1236.396,603.557z M1236.396,540.268c-4.793,0-9.295,1.869-12.68,5.26
			c-3.41,3.403-5.279,7.902-5.281,12.689c-0.004,4.801,1.867,9.318,5.271,12.722c3.385,3.384,7.891,5.249,12.689,5.249
			s9.318-1.869,12.719-5.261c3.393-3.392,5.264-7.909,5.262-12.71c-0.002-4.787-1.871-9.284-5.262-12.668
			C1245.704,542.139,1241.192,540.268,1236.396,540.268z"/>
		<path id="XMLID_1571_" fill="#297FC2" d="M1214.028,549.546c-3.504,0-7.004-1.336-9.678-4.007l-37.309-37.309
			c-5.346-5.346-5.346-14.012,0-19.354c5.344-5.344,14.01-5.344,19.354,0l37.311,37.308c5.344,5.346,5.344,14.013,0,19.355
			C1221.034,548.21,1217.532,549.546,1214.028,549.546z"/>
		<path id="XMLID_1570_" fill="#297FC2" d="M982.761,318.277c-3.504,0-7.008-1.337-9.68-4.012l-37.283-37.308
			c-5.342-5.347-5.338-14.013,0.006-19.355c5.346-5.346,14.012-5.341,19.355,0.008l37.281,37.309
			c5.344,5.346,5.34,14.012-0.008,19.355C989.763,316.942,986.263,318.277,982.761,318.277z"/>
		<path id="XMLID_8617_" fill="#297FC2" d="M1111.409,404.72c-25.01,0-45.354-20.346-45.354-45.356
			c0-24.992,20.348-45.328,45.354-45.328c24.994,0,45.328,20.336,45.328,45.328C1156.737,384.374,1136.403,404.72,1111.409,404.72z
			 M1111.409,341.407c-9.914,0-17.982,8.056-17.982,17.956c0,9.918,8.068,17.983,17.982,17.983c9.902,0,17.957-8.065,17.957-17.983
			C1129.366,349.463,1121.312,341.407,1111.409,341.407z"/>
		<path id="XMLID_8609_" fill="#297FC2" d="M1048.101,489.108c-19.184,0-34.791-15.608-34.791-34.79
			c0-19.183,15.607-34.79,34.791-34.79c19.182,0,34.789,15.607,34.789,34.79C1082.89,473.5,1067.282,489.108,1048.101,489.108z
			 M1048.101,446.899c-4.092,0-7.42,3.329-7.42,7.419c0,4.089,3.328,7.417,7.42,7.417c4.086,0,7.418-3.328,7.418-7.417
			C1055.519,450.229,1052.187,446.899,1048.101,446.899z"/>
		<path id="XMLID_8601_" fill="#297FC2" d="M252.636,1174.837c-60.372,0-109.489-49.119-109.489-109.49
			s49.117-109.488,109.489-109.488s109.489,49.117,109.489,109.488S313.008,1174.837,252.636,1174.837z M252.636,983.231
			c-45.28,0-82.116,36.836-82.116,82.115s36.836,82.117,82.116,82.117c45.279,0,82.116-36.838,82.116-82.117
			S297.915,983.231,252.636,983.231z"/>
		<path id="XMLID_8590_" fill="#297FC2" d="M1238.034,887.429c-45.279,0-82.115-36.84-82.115-82.117
			c0-45.279,36.836-82.117,82.115-82.117c45.281,0,82.115,36.838,82.115,82.117C1320.149,850.589,1283.315,887.429,1238.034,887.429
			z M1238.034,750.567c-30.186,0-54.742,24.557-54.742,54.744c0,30.186,24.557,54.744,54.742,54.744
			c30.188,0,54.744-24.559,54.744-54.744C1292.778,775.124,1268.222,750.567,1238.034,750.567z"/>
	</g>
	<path id="XMLID_1619_" fill="#9FC6EA" d="M1111.409,327.722c17.463,0,31.645,14.179,31.645,31.642
		c0,17.491-14.182,31.67-31.645,31.67c-17.49,0-31.67-14.179-31.67-31.67C1079.739,341.9,1093.919,327.722,1111.409,327.722z"/>
	<circle id="XMLID_1618_" fill="#9FC6EA" cx="1048.101" cy="454.317" r="21.104"/>
</g>
<g id="Layer_4" display="none">
	<circle display="inline" fill="#4E4E4E" cx="96.191" cy="1227.637" r="46.956"/>
	<circle display="inline" fill="#D1D1D1" cx="96.191" cy="1338.412" r="46.956"/>
</g>
</svg>
