<?xml version="1.0" encoding="utf-8"?>
<!-- Generator: Adobe Illustrator 16.0.1, SVG Export Plug-In . SVG Version: 6.00 Build 0)  -->
<!DOCTYPE svg PUBLIC "-//W3C//DTD SVG 1.1//EN" "http://www.w3.org/Graphics/SVG/1.1/DTD/svg11.dtd">
<svg version="1.1" xmlns="http://www.w3.org/2000/svg" xmlns:xlink="http://www.w3.org/1999/xlink" x="0px" y="0px"
	 width="1417.32px" height="1417.32px" viewBox="0 0 1417.32 1417.32" enable-background="new 0 0 1417.32 1417.32"
	 xml:space="preserve">
<g id="Layer_2">
	<g>
		<path fill="#D8E1EF" d="M1194.104,295.4L729.564,63.131c-13.148-6.627-28.66-6.627-41.809,0L223.216,295.4
			c-15.622,7.871-25.497,23.85-25.549,41.344v557.447c3.024,79.696,69.869,141.976,149.581,139.361h722.823
			c79.713,2.614,146.558-59.665,149.582-139.361V336.744C1219.602,319.25,1209.726,303.271,1194.104,295.4z"/>
		<path fill="#3266AF" d="M1266.108,429.651c-7.289,0.087-14.48-1.67-20.904-5.109L708.659,156.503L172.117,424.542
			c-23.684,9.862-50.879-1.343-60.741-25.027c-8.853-21.256-0.797-45.79,18.933-57.66L687.756,63.131
			c13.148-6.627,28.66-6.627,41.809,0l557.447,278.724c22.775,11.593,31.91,39.408,20.44,62.247
			C1299.581,419.724,1283.601,429.599,1266.108,429.651z"/>
		<path fill="#4487C7" d="M615.752,1265.824H104.76c-25.656,0-46.455-20.8-46.455-46.455c0-25.657,20.799-46.454,46.455-46.454
			h510.992c25.657,0,46.454,20.797,46.454,46.454C662.206,1245.024,641.409,1265.824,615.752,1265.824z M1312.561,1265.824H801.568
			c-25.656,0-46.454-20.8-46.454-46.455c0-25.657,20.798-46.454,46.454-46.454h510.992c25.656,0,46.455,20.797,46.455,46.454
			C1359.016,1245.024,1338.217,1265.824,1312.561,1265.824z"/>
		<path fill="#3266AF" d="M987.384,476.106c-51.312,0-92.907,41.596-92.907,92.906c0.135,7.999,1.227,15.953,3.252,23.692
			l-36.235,36.234c-8.696,8.767-13.543,20.633-13.472,32.981v371.632h92.907V680.968l22.763-22.299
			c7.734,2.057,15.691,3.148,23.692,3.252c51.313,0,92.907-41.596,92.907-92.908C1080.291,517.702,1038.696,476.106,987.384,476.106
			z M569.299,1033.553V661.921c0.071-12.349-4.776-24.215-13.472-32.981l-36.235-36.234c2.024-7.739,3.116-15.693,3.252-23.692
			c0-51.311-41.595-92.906-92.908-92.906c-51.312,0-92.908,41.596-92.908,92.906c0,51.313,41.596,92.908,92.908,92.908
			c8.001-0.104,15.958-1.195,23.692-3.252l22.763,22.299v352.585H569.299z"/>
		<path fill="#3266AF" d="M755.114,1088.368v-625.27c44.437-25.656,59.662-82.478,34.007-126.915
			c-25.657-44.437-82.478-59.662-126.916-34.007c-44.436,25.655-59.662,82.479-34.006,126.915
			c8.154,14.123,19.884,25.853,34.006,34.007v625.27c-72.564,25.657-110.593,105.28-84.937,177.848
			c25.656,72.563,105.28,110.592,177.846,84.936c72.565-25.654,110.593-105.28,84.938-177.845
			C826.021,1133.619,794.803,1102.399,755.114,1088.368z"/>
	</g>
</g>
<g id="Layer_4" display="none">
	<g display="inline">
		<circle fill="#4487C7" cx="-290.29" cy="1246.869" r="27.5"/>
		<circle fill="#3266AF" cx="-290.29" cy="1312.869" r="27.5"/>
	</g>
	<g display="inline">
		<circle fill="#D1D1D1" cx="-224.623" cy="1312.869" r="27.5"/>
		<circle fill="#4E4E4E" cx="-224.623" cy="1246.869" r="27.5"/>
	</g>
</g>
</svg>
