<?xml version="1.0" encoding="utf-8"?>
<!-- Generator: Adobe Illustrator 16.0.1, SVG Export Plug-In . SVG Version: 6.00 Build 0)  -->
<!DOCTYPE svg PUBLIC "-//W3C//DTD SVG 1.1//EN" "http://www.w3.org/Graphics/SVG/1.1/DTD/svg11.dtd">
<svg version="1.1" xmlns="http://www.w3.org/2000/svg" xmlns:xlink="http://www.w3.org/1999/xlink" x="0px" y="0px"
	 width="1417.32px" height="1417.32px" viewBox="0 0 1417.32 1417.32" enable-background="new 0 0 1417.32 1417.32"
	 xml:space="preserve">
<g id="Layer_1">
	<g id="Layer_2_1_">
		<g id="Layer_3">
			<g>
				<circle fill="#4487C7" cx="-182.131" cy="1034.143" r="27.5"/>
				<circle fill="#3266AF" cx="-182.131" cy="1100.143" r="27.5"/>
			</g>
			<g>
				
					<linearGradient id="SVGID_1_" gradientUnits="userSpaceOnUse" x1="-769.2832" y1="295.1426" x2="-714.2832" y2="295.1426" gradientTransform="matrix(1 0 0 1 625.3203 805)">
					<stop  offset="0" style="stop-color:#D3DFF2"/>
					<stop  offset="0.1717" style="stop-color:#D3DFF2"/>
					<stop  offset="0.2" style="stop-color:#D3DFF2"/>
					<stop  offset="0.2002" style="stop-color:#DAE2F2"/>
					<stop  offset="0.2007" style="stop-color:#EBEBF2"/>
					<stop  offset="0.2014" style="stop-color:#F6EFF2"/>
					<stop  offset="0.2023" style="stop-color:#FDF1F2"/>
					<stop  offset="0.205" style="stop-color:#FEF2F2"/>
					<stop  offset="0.2522" style="stop-color:#FEF2F2"/>
					<stop  offset="0.26" style="stop-color:#FEF2F2"/>
					<stop  offset="0.26" style="stop-color:#D3DFF2"/>
					<stop  offset="0.3974" style="stop-color:#D3DFF2"/>
					<stop  offset="0.42" style="stop-color:#D3DFF2"/>
					<stop  offset="0.4202" style="stop-color:#DAE2F2"/>
					<stop  offset="0.4207" style="stop-color:#EBEBF2"/>
					<stop  offset="0.4214" style="stop-color:#F6EFF2"/>
					<stop  offset="0.4223" style="stop-color:#FDF1F2"/>
					<stop  offset="0.425" style="stop-color:#FEF2F2"/>
					<stop  offset="0.4894" style="stop-color:#FEF2F2"/>
					<stop  offset="0.5" style="stop-color:#FEF2F2"/>
					<stop  offset="0.5" style="stop-color:#F8F0F2"/>
					<stop  offset="0.5001" style="stop-color:#E7E8F3"/>
					<stop  offset="0.5003" style="stop-color:#DCE3F2"/>
					<stop  offset="0.5005" style="stop-color:#D5E0F2"/>
					<stop  offset="0.501" style="stop-color:#D3DFF2"/>
					<stop  offset="0.7062" style="stop-color:#D3DFF2"/>
					<stop  offset="0.74" style="stop-color:#D3DFF2"/>
					<stop  offset="0.741" style="stop-color:#FEF2F2"/>
					<stop  offset="0.8346" style="stop-color:#FEF2F2"/>
					<stop  offset="0.85" style="stop-color:#FEF2F2"/>
					<stop  offset="0.851" style="stop-color:#D3DFF2"/>
				</linearGradient>
				<circle fill="url(#SVGID_1_)" cx="-116.463" cy="1100.143" r="27.5"/>
				<circle fill="#4E4E4E" cx="-116.463" cy="1034.143" r="27.5"/>
			</g>
		</g>
		<g id="Layer_4_2_">
			<g>
				<circle fill="#4487C7" cx="-182.131" cy="1173.989" r="27.5"/>
				<circle fill="#3266AF" cx="-182.131" cy="1239.989" r="27.5"/>
			</g>
			<g>
				<circle fill="#8A8A8A" cx="-116.463" cy="1239.989" r="27.5"/>
				<circle fill="#4E4E4E" cx="-116.463" cy="1173.989" r="27.5"/>
			</g>
		</g>
		<g id="Layer_4">
			<g>
				<circle fill="#4487C7" cx="-182.131" cy="1311.629" r="27.5"/>
				<circle fill="#3266AF" cx="-182.131" cy="1377.629" r="27.5"/>
			</g>
			<g>
				<circle fill="#D1D1D1" cx="-116.463" cy="1377.629" r="27.5"/>
				<circle fill="#4E4E4E" cx="-116.463" cy="1311.629" r="27.5"/>
			</g>
		</g>
	</g>
</g>
<g id="Layer_2" display="none">
	<g display="inline">
		<path vector-effect="non-scaling-stroke" fill="none" stroke="#98C3F0" stroke-width="2" d="M986.439,465.689
			c-20.307-30.888-31.731-63.796-34.275-98.727c-3.424-46.7,8.202-89.786,34.883-129.257"/>
		<path fill="#8A8A8A" d="M986.439,465.689c-20.307-30.888-31.731-63.796-34.275-98.727c-3.424-46.7,8.202-89.786,34.883-129.257
			c38.091-51.195,87.419-79.312,147.982-84.353c24.396-2.045,47.911,0.167,70.549,6.634c32.362,9.25,60.492,25.585,84.389,49.007
			c16.883,16.549,30.579,35.821,41.088,57.817c20.83,43.537,24.968,88.823,12.412,135.855
			c-6.276,23.564-16.191,45.024-29.746,64.379c-25.348,36.214-59.742,61.336-103.185,75.365
			c-15.837,5.112-32.802,8.014-50.897,8.703c-17.024,0.642-33.967-0.927-50.825-4.708
			C1058.689,535.181,1017.898,508.276,986.439,465.689z"/>
		<path fill="#D9DCE1" d="M987.047,237.705c-26.681,39.472-38.307,82.557-34.883,129.257c2.544,34.93,13.969,67.839,34.275,98.727
			c-259.918,0.286-519.527,0.369-778.828,0.25c-10.533,0-19.438-0.106-26.715-0.32c-10.105-0.262-18.939-1.333-26.5-3.211
			c-38.996-9.653-65.842-33.74-80.537-72.261c-5.825-15.29-8.061-31.031-6.705-47.223c1.26-14.957,5.826-29.77,13.696-44.442
			c21.804-40.541,58.708-60.812,110.711-60.812C456.64,237.67,721.801,237.681,987.047,237.705z"/>
		<path fill="#D9DCE1" d="M179.186,637.32h1030.565c61.755,0,111.816,50.062,111.816,111.817v4.28
			c0,61.755-50.062,111.816-111.816,111.816H179.186c-61.755,0-111.817-50.062-111.817-111.816v-4.28
			C67.369,687.382,117.43,637.32,179.186,637.32z"/>
		<path fill="#D9DCE1" d="M179.186,1036.793h1030.565c61.755,0,111.816,50.06,111.816,111.816v4.278
			c0,61.755-50.062,111.817-111.816,111.817H179.186c-61.755,0-111.817-50.063-111.817-111.817v-4.278
			C67.369,1086.853,117.43,1036.793,179.186,1036.793z"/>
	</g>
</g>
<g id="Layer_3_1_">
	<g>
		<path vector-effect="non-scaling-stroke" fill="none" stroke="#98C3F0" stroke-width="2" d="M986.439,465.689
			c-20.307-30.888-31.731-63.796-34.275-98.727c-3.424-46.7,8.202-89.786,34.883-129.257"/>
		<path fill="#3974C7" d="M986.439,465.689c-20.307-30.888-31.731-63.796-34.275-98.727c-3.424-46.7,8.202-89.786,34.883-129.257
			c38.091-51.195,87.419-79.312,147.982-84.353c24.396-2.045,47.911,0.167,70.549,6.634c32.362,9.25,60.492,25.585,84.389,49.007
			c16.883,16.549,30.579,35.821,41.088,57.817c20.83,43.537,24.968,88.823,12.412,135.855
			c-6.276,23.564-16.191,45.024-29.746,64.379c-25.348,36.214-59.742,61.336-103.185,75.365
			c-15.837,5.112-32.802,8.014-50.897,8.703c-17.024,0.642-33.967-0.927-50.825-4.708
			C1058.689,535.181,1017.898,508.276,986.439,465.689z"/>
		<path fill="#4B99E3" d="M987.047,237.705c-26.681,39.472-38.307,82.557-34.883,129.257c2.544,34.93,13.969,67.839,34.275,98.727
			c-259.918,0.286-519.527,0.369-778.828,0.25c-10.533,0-19.438-0.106-26.715-0.32c-10.105-0.262-18.939-1.333-26.5-3.211
			c-38.996-9.653-65.842-33.74-80.537-72.261c-5.825-15.29-8.061-31.031-6.705-47.223c1.26-14.957,5.826-29.77,13.696-44.442
			c21.804-40.541,58.708-60.812,110.711-60.812C456.64,237.67,721.801,237.681,987.047,237.705z"/>
		<path fill="#4B99E3" d="M179.186,637.32h1030.565c61.755,0,111.816,50.062,111.816,111.817v4.28
			c0,61.755-50.062,111.816-111.816,111.816H179.186c-61.755,0-111.817-50.062-111.817-111.816v-4.28
			C67.369,687.382,117.43,637.32,179.186,637.32z"/>
		<path fill="#4B99E3" d="M179.186,1036.793h1030.565c61.755,0,111.816,50.06,111.816,111.816v4.278
			c0,61.755-50.062,111.817-111.816,111.817H179.186c-61.755,0-111.817-50.063-111.817-111.817v-4.278
			C67.369,1086.853,117.43,1036.793,179.186,1036.793z"/>
	</g>
</g>
</svg>
