<?xml version="1.0" encoding="utf-8"?>
<!-- Generator: Adobe Illustrator 16.0.1, SVG Export Plug-In . SVG Version: 6.00 Build 0)  -->
<!DOCTYPE svg PUBLIC "-//W3C//DTD SVG 1.1//EN" "http://www.w3.org/Graphics/SVG/1.1/DTD/svg11.dtd">
<svg version="1.1" id="Layer_1" xmlns="http://www.w3.org/2000/svg" xmlns:xlink="http://www.w3.org/1999/xlink" x="0px" y="0px"
	 width="1417.32px" height="1417.32px" viewBox="0 0 1417.32 1417.32" enable-background="new 0 0 1417.32 1417.32"
	 xml:space="preserve">
<g>
	<g>
		<path fill="#FFF434" d="M556.141,202.489c0,86.761-70.272,157.034-157.033,157.034c86.761,0,157.033,70.272,157.033,157.034
			c0-86.762,70.274-157.034,157.035-157.034C626.415,359.523,556.141,289.25,556.141,202.489z"/>
		<path fill="#FFF434" d="M242.074,438.04c0,86.761-70.272,157.034-157.034,157.034c86.762,0,157.034,70.273,157.034,157.034
			c0-86.761,70.272-157.034,157.034-157.034C312.346,595.074,242.074,524.801,242.074,438.04z"/>
		<path fill="#FFF434" d="M477.624,987.658c0-86.761,70.273-157.034,157.034-157.034c-86.761,0-157.034-70.272-157.034-157.033
			c0,86.761-70.272,157.033-157.034,157.033C407.352,830.624,477.624,900.897,477.624,987.658z"/>
	</g>
	<g>
		<path fill="#FFF88C" d="M393.933,1122.056c-93.503,26.196-192.023,38.969-282.458,26.443
			c167.02,204.959,449.551,295.674,720.359,219.795c364.343-102.086,576.953-480.22,474.866-844.563
			c-75.876-270.809-300.188-465.073-562.095-501.28c57.696,70.763,97.95,161.488,124.172,255.076
			C970.865,641.873,758.279,1019.967,393.933,1122.056z"/>
	</g>
</g>
</svg>
