<?xml version="1.0" encoding="utf-8"?>
<!-- Generator: Adobe Illustrator 16.0.1, SVG Export Plug-In . SVG Version: 6.00 Build 0)  -->
<!DOCTYPE svg PUBLIC "-//W3C//DTD SVG 1.1//EN" "http://www.w3.org/Graphics/SVG/1.1/DTD/svg11.dtd">
<svg version="1.1" id="Layer_1" xmlns="http://www.w3.org/2000/svg" xmlns:xlink="http://www.w3.org/1999/xlink" x="0px" y="0px"
	 width="1417.32px" height="1417.32px" viewBox="0 0 1417.32 1417.32" enable-background="new 0 0 1417.32 1417.32"
	 xml:space="preserve">
<path fill="#FFF434" d="M763.16,163.619v-109c0-41.974-45.428-68.208-81.762-47.229c-16.859,9.744-27.238,27.697-27.238,47.229v109
	c0,41.974,45.413,68.179,81.746,47.17C752.781,201.104,763.16,183.093,763.16,163.619z M1199.208,708.667
	c0,30.118,24.39,54.508,54.508,54.508h109.017c41.942,0,68.192-45.441,47.185-81.775c-9.715-16.847-27.712-27.255-47.185-27.255
	h-109.017C1223.598,654.145,1199.208,678.534,1199.208,708.667z M1132.594,361.778l77.111-77.082
	c29.646-29.675,16.077-80.33-24.464-91.181c-18.794-5.049-38.873,0.31-52.647,14.114l-77.096,77.067
	c-10.646,10.659-15.945,24.582-15.945,38.534c0,13.979,5.301,27.857,15.931,38.548
	C1076.758,383.082,1111.305,383.082,1132.594,361.778z M763.16,1362.716v-109.001c0-41.943-45.428-68.179-81.762-47.199
	c-16.859,9.729-27.238,27.728-27.238,47.199v109.001c0,41.974,45.413,68.209,81.746,47.229
	C752.781,1400.216,763.16,1382.204,763.16,1362.716z M1209.705,1209.689c21.289-21.274,21.289-55.777,0-77.053l-77.111-77.065
	c-30.162-29.158-80.58-14.705-90.753,26.014c-4.547,18.233,0.649,37.544,13.688,51.053l77.096,77.052
	C1153.898,1230.994,1188.416,1230.994,1209.705,1209.689z"/>
<circle fill="#FFF434" cx="703" cy="708.667" r="383.231"/>
<path fill="#FFF434" d="M163.156,659.491l-109.012,0.875c-19.472,0.156-37.385,10.708-46.964,27.632
	c-20.717,36.501,5.897,81.732,47.839,81.396l109.012-0.875c30.117-0.242,54.311-24.826,54.069-54.944
	C217.858,683.443,193.273,659.25,163.156,659.491z M359.038,365.544c10.543-10.774,15.732-24.694,15.62-38.675
	c-0.112-13.951-5.523-27.831-16.254-38.404l-77.711-76.446c-13.885-13.692-34.006-18.891-52.759-13.691
	c-40.453,11.177-53.614,61.938-23.732,91.375l77.728,76.46C303.388,387.295,337.934,387.018,359.038,365.544z M288.702,1214.046
	l76.475-77.666c12.928-13.613,17.97-32.965,13.277-51.162c-10.5-40.635-61.032-54.684-90.959-25.285l-76.491,77.685
	c-21.118,21.442-20.841,55.944,0.618,77.049C233.082,1235.798,267.599,1235.521,288.702,1214.046z"/>
</svg>
