<?xml version="1.0" encoding="utf-8"?>
<!-- Generator: Adobe Illustrator 16.0.1, SVG Export Plug-In . SVG Version: 6.00 Build 0)  -->
<!DOCTYPE svg PUBLIC "-//W3C//DTD SVG 1.1//EN" "http://www.w3.org/Graphics/SVG/1.1/DTD/svg11.dtd">
<svg version="1.1" xmlns="http://www.w3.org/2000/svg" xmlns:xlink="http://www.w3.org/1999/xlink" x="0px" y="0px"
	 width="1417.32px" height="1417.32px" viewBox="0 0 1417.32 1417.32" enable-background="new 0 0 1417.32 1417.32"
	 xml:space="preserve">
<g id="Layer_2">
	<g>
		<g transform="translate(1 1)">
			<path fill="#7D7D7E" d="M1363.252,707.294c-0.721,361.388-294.271,653.762-655.659,653.04c-0.031,0-0.06,0-0.091,0
				c-15.152,0-30.302-0.453-45.227-1.812C318.911,1336.365,51.75,1051.382,51.75,707.294c0-344.089,267.161-629.069,610.525-651.23
				c14.925-1.356,30.074-1.808,45.227-1.808c361.386-0.776,654.975,291.558,655.75,652.943
				C1363.252,707.231,1363.252,707.262,1363.252,707.294z"/>
			<path fill="#D6D7D7" d="M662.275,56.063c337.187,0,610.529,291.566,610.529,651.23c0,359.661-273.343,651.229-610.529,651.229
				c-337.183,0-610.525-291.567-610.525-651.229C51.75,347.629,325.093,56.063,662.275,56.063z"/>
			<path fill="#949494" d="M1295.416,707.294c-1.086,323.808-264.109,585.609-587.914,585.201c-18.995,0-37.764-0.904-56.533-2.712
				c-301.032-27.678-531.384-280.165-531.384-582.489c0-302.325,230.352-554.812,531.384-582.488
				c18.77-1.809,37.538-2.715,56.533-2.715C1031.307,121.684,1294.33,383.489,1295.416,707.294z"/>
			
				<linearGradient id="SVGID_1_" gradientUnits="userSpaceOnUse" x1="-142.8096" y1="1129.1943" x2="-141.638" y2="1128.1255" gradientTransform="matrix(659.4807 0 0 -722.903 94444.2188 816619.25)">
				<stop  offset="0" style="stop-color:#D6D7D7"/>
				<stop  offset="0.1717" style="stop-color:#D6D7D7"/>
				<stop  offset="0.2" style="stop-color:#D6D7D7"/>
				<stop  offset="0.2002" style="stop-color:#D1D1D1"/>
				<stop  offset="0.2007" style="stop-color:#EBEBF2"/>
				<stop  offset="0.2014" style="stop-color:#F6EFF2"/>
				<stop  offset="0.2023" style="stop-color:#FDF1F2"/>
				<stop  offset="0.205" style="stop-color:#FEF2F2"/>
				<stop  offset="0.2522" style="stop-color:#FEF2F2"/>
				<stop  offset="0.26" style="stop-color:#FEF2F2"/>
				<stop  offset="0.26" style="stop-color:#D6D7D7"/>
				<stop  offset="0.3974" style="stop-color:#D6D7D7"/>
				<stop  offset="0.42" style="stop-color:#D6D7D7"/>
				<stop  offset="0.4202" style="stop-color:#D1D1D1"/>
				<stop  offset="0.4207" style="stop-color:#EBEBF2"/>
				<stop  offset="0.4214" style="stop-color:#F6EFF2"/>
				<stop  offset="0.4223" style="stop-color:#FDF1F2"/>
				<stop  offset="0.425" style="stop-color:#FEF2F2"/>
				<stop  offset="0.4894" style="stop-color:#FEF2F2"/>
				<stop  offset="0.5" style="stop-color:#FEF2F2"/>
				<stop  offset="0.5" style="stop-color:#F8F0F2"/>
				<stop  offset="0.5001" style="stop-color:#E7E8F3"/>
				<stop  offset="0.5003" style="stop-color:#DCE3F2"/>
				<stop  offset="0.5005" style="stop-color:#D1D1D1"/>
				<stop  offset="0.501" style="stop-color:#D6D7D7"/>
				<stop  offset="0.7062" style="stop-color:#D6D7D7"/>
				<stop  offset="0.74" style="stop-color:#D6D7D7"/>
				<stop  offset="0.741" style="stop-color:#FEF2F2"/>
				<stop  offset="0.8346" style="stop-color:#FEF2F2"/>
				<stop  offset="0.85" style="stop-color:#FEF2F2"/>
				<stop  offset="0.851" style="stop-color:#D6D7D7"/>
			</linearGradient>
			<ellipse fill="url(#SVGID_1_)" cx="650.969" cy="707.294" rx="531.386" ry="582.489"/>
			<path fill="#D6D7D7" d="M946.512,726.063l-31.431,21.934l-330.817,229.06c-10.217,6.983-24.16,4.358-31.144-5.86
				c-2.594-3.798-3.96-8.306-3.903-12.907v-501.99c-0.147-12.375,9.767-22.526,22.14-22.673c4.602-0.054,9.108,1.31,12.907,3.906
				l362.248,250.993c10.363,7.406,12.766,21.808,5.363,32.172C950.394,722.77,948.583,724.582,946.512,726.063z"/>
			<path fill="#DEE2F0" d="M915.081,747.997l-330.817,229.06c-10.217,6.983-24.16,4.358-31.144-5.86
				c-2.594-3.798-3.96-8.306-3.903-12.907V499.037c4.441-0.022,8.782,1.321,12.437,3.842L915.081,747.997z"/>
		</g>
		<path fill="#FFFFFF" d="M763.901,1361.107C403.331,1378.48,96.947,1100.27,79.571,739.7
			C62.195,379.128,340.41,72.744,700.98,55.369c21.713-1.047,43.469-1.009,65.181,0.112
			C417.844,71.717,143.604,358.529,142.993,707.207C142.383,1055.911,415.629,1343.696,763.901,1361.107z"/>
		<path fill="#FFFFFF" d="M393.356,162.437C172.582,290.668,49.759,538.381,81.331,791.735
			c42.261,318.534,317.316,554.31,638.567,547.35c155.047-4.197,303.345-64.327,417.53-169.3
			c255.812-234.457,273.12-631.901,38.661-887.71c-89.656-97.823-207.984-164.749-338.021-191.182
			C686.063,59.914,527.978,85.347,393.356,162.437l-22.613-39.164C514.957,40.656,684.329,13.397,847.181,46.595
			c364.785,75.128,599.597,431.748,524.468,796.532c-28.485,138.308-99.67,264.184-203.509,359.879
			c-122.307,112.471-281.194,176.873-447.293,181.303c-371.918,9.023-680.734-285.16-689.76-657.076
			c-3.448-142.104,38.146-281.658,118.826-398.688c57.429-83.993,132.862-154.125,220.809-205.295l22.611,39.187H393.356z"/>
		<path fill="#343434" d="M847.159,46.595C684.307,13.39,514.938,40.641,370.722,123.25l-39.278,25.393l-19.582,12.776
			l-18.271,14.585c-9.847,7.517-11.735,21.594-4.22,31.44c0.138,0.181,0.278,0.357,0.421,0.533
			c7.801,9.498,21.709,11.148,31.521,3.754l17.027-13.658l18.315-11.895l36.677-23.743c134.63-77.09,292.724-102.514,444.736-71.522
			c340.312,70.068,559.389,402.747,489.321,743.06c-26.577,129.074-93.015,246.545-189.936,335.833
			c-114.187,104.974-262.488,165.103-417.534,169.297c-346.946,8.53-635.114-265.813-643.641-612.762
			c-3.261-132.703,35.585-263.028,110.966-372.29l12.324-18.022c6.901-9.98,4.982-23.589-4.409-31.272
			c-9.492-7.688-23.418-6.226-31.104,3.266c-0.318,0.392-0.624,0.798-0.916,1.211l-13.228,19.288
			c-210.784,306.994-132.792,726.734,174.201,937.516c116.574,80.041,255.361,121.407,396.732,118.246
			c166.092-4.429,324.965-68.819,447.268-181.279c274.159-251.412,292.6-677.465,41.191-951.622
			c-96.074-104.765-222.832-176.45-362.125-204.789H847.159z"/>
		<path fill="#343434" d="M224.217,270.092c9.158,8.097,22.974,7.915,31.928-0.406c4.095-4.139,6.423-9.701,6.514-15.513
			l-0.453-4.296c-0.278-1.501-0.75-2.959-1.401-4.341c-0.436-1.365-1.069-2.661-1.878-3.844c-0.843-1.268-1.771-2.477-2.781-3.617
			c-4.204-4.275-9.903-6.74-15.918-6.875c-12.618,0.407-22.816,10.402-23.517,22.997c0.178,3.031,0.969,5.993,2.33,8.705
			c1.221,2.714,2.983,5.155,5.177,7.192V270.092z"/>
		<path fill="#343434" d="M708.502,1293.382c322.766-1.559,583.304-264.198,582.261-586.965
			c-1.015-322.766-263.251-583.733-586.016-583.212c-322.788,0.52-584.162,262.301-584.162,585.089
			C121.717,1032.056,384.74,1293.79,708.502,1293.382z M708.502,168.429c297.802,1.56,538.076,243.94,537.037,541.739
			c-1.017,297.805-242.99,538.51-540.792,537.99c-297.802-0.519-538.938-242.063-538.938-539.864
			C166.939,409.498,409.705,167.999,708.502,168.429z"/>
		<path fill="#343434" d="M551.8,999.492c14.742,7.755,32.561,6.624,46.218-2.871l362.382-251.086
			c20.57-14.321,25.631-42.608,11.31-63.177c-3.072-4.406-6.899-8.237-11.31-11.306l-362.36-251.063
			c-13.672-9.503-31.497-10.61-46.239-2.872c-14.909,7.809-24.236,23.262-24.196,40.09v502.171
			C527.556,976.217,536.883,991.684,551.8,999.492z M572.828,457.525l361.816,250.838L572.828,959.379V457.525z"/>
	</g>
</g>
<g id="Layer_3" display="none">
	<g id="Page-1" display="inline">
		<g id="_x30_01---play">
			<g id="Icons" transform="translate(1.000000, 1.000000)">
				<path id="Shape" fill="#7494CC" d="M1364.197,706.5c-0.354,173.498-69.62,339.757-192.527,462.175
					c-122.949,122.418-289.471,190.981-462.97,190.605c-15.142,0-30.284-0.464-45.208-1.811
					c-343.244-22.164-610.29-307.02-610.29-650.97c0-343.952,267.046-628.811,610.29-650.973c14.924-1.358,30.065-1.81,45.208-1.81
					c173.499-0.375,340.021,68.196,462.97,190.616C1294.577,366.754,1363.844,533,1364.197,706.5z"/>
				<path id="Oval" fill="#CCDBF2" d="M663.493,55.527c337.064,0,610.291,291.449,610.291,650.973
					c0,359.531-273.227,650.97-610.291,650.97c-337.063,0-610.29-291.439-610.29-650.97
					C53.203,346.976,326.43,55.527,663.493,55.527z"/>
				<path id="Shape_1_" fill="#98B2DD" d="M1296.386,706.5c-1.103,323.687-263.998,585.389-587.686,584.969
					c-18.983,0-37.747-0.903-56.508-2.715c-300.909-27.679-531.18-280.068-531.18-582.254c0-302.189,230.271-554.589,531.18-582.258
					c18.761-1.811,37.524-2.714,56.508-2.714C1032.388,121.119,1295.283,382.823,1296.386,706.5z"/>
				
					<linearGradient id="Oval_2_" gradientUnits="userSpaceOnUse" x1="-143.0728" y1="1130.6689" x2="-126.6397" y2="1115.6776" gradientTransform="matrix(47 0 0 -51.52 6990.4063 58572.3828)">
					<stop  offset="0" style="stop-color:#D3DFF2"/>
					<stop  offset="0.1717" style="stop-color:#D3DFF2"/>
					<stop  offset="0.2" style="stop-color:#D3DFF2"/>
					<stop  offset="0.2002" style="stop-color:#DAE2F2"/>
					<stop  offset="0.2007" style="stop-color:#EBEBF2"/>
					<stop  offset="0.2014" style="stop-color:#F6EFF2"/>
					<stop  offset="0.2023" style="stop-color:#FDF1F2"/>
					<stop  offset="0.205" style="stop-color:#FEF2F2"/>
					<stop  offset="0.2522" style="stop-color:#FEF2F2"/>
					<stop  offset="0.26" style="stop-color:#FEF2F2"/>
					<stop  offset="0.26" style="stop-color:#D3DFF2"/>
					<stop  offset="0.3974" style="stop-color:#D3DFF2"/>
					<stop  offset="0.42" style="stop-color:#D3DFF2"/>
					<stop  offset="0.4202" style="stop-color:#DAE2F2"/>
					<stop  offset="0.4207" style="stop-color:#EBEBF2"/>
					<stop  offset="0.4214" style="stop-color:#F6EFF2"/>
					<stop  offset="0.4223" style="stop-color:#FDF1F2"/>
					<stop  offset="0.425" style="stop-color:#FEF2F2"/>
					<stop  offset="0.4894" style="stop-color:#FEF2F2"/>
					<stop  offset="0.5" style="stop-color:#FEF2F2"/>
					<stop  offset="0.5" style="stop-color:#F8F0F2"/>
					<stop  offset="0.5001" style="stop-color:#E7E8F3"/>
					<stop  offset="0.5003" style="stop-color:#DCE3F2"/>
					<stop  offset="0.5005" style="stop-color:#D5E0F2"/>
					<stop  offset="0.501" style="stop-color:#D3DFF2"/>
					<stop  offset="0.7062" style="stop-color:#D3DFF2"/>
					<stop  offset="0.74" style="stop-color:#D3DFF2"/>
					<stop  offset="0.741" style="stop-color:#FEF2F2"/>
					<stop  offset="0.8346" style="stop-color:#FEF2F2"/>
					<stop  offset="0.85" style="stop-color:#FEF2F2"/>
					<stop  offset="0.851" style="stop-color:#D3DFF2"/>
				</linearGradient>
				<path id="Oval_1_" fill="url(#Oval_2_)" d="M652.192,124.242c293.355,0,531.178,260.678,531.178,582.258
					c0,321.569-237.822,582.254-531.178,582.254c-293.359,0-531.18-260.686-531.18-582.254
					C121.012,384.92,358.833,124.242,652.192,124.242z"/>
				<path id="Shape_2_" fill="#CCDBF2" d="M947.625,725.261l-31.432,21.92L585.508,976.149c-6.91,4.726-15.826,5.209-23.2,1.259
					c-7.374-3.948-11.918-11.655-11.832-20.021V455.6c-0.086-8.355,4.458-16.06,11.832-20.01c7.374-3.94,16.29-3.465,23.2,1.248
					l362.117,250.899c6.048,4.327,9.666,11.313,9.666,18.764C957.291,713.947,953.673,720.933,947.625,725.261z"/>
				<path id="Shape_3_" fill="#DEE2F0" d="M916.193,747.181L585.508,976.149c-6.91,4.726-15.826,5.209-23.2,1.259
					c-7.374-3.948-11.918-11.655-11.832-20.021V498.322c4.437-0.022,8.786,1.324,12.426,3.842L916.193,747.181z"/>
			</g>
			<g id="Layer_13" transform="translate(2.000000, 1.000000)">
				<path id="Shape_4_" fill="#FFFFFF" d="M763.081,1359.06c-240.933,11.612-468.642-110.479-592.343-317.526
					C47.016,834.437,47.479,576.066,171.885,369.424C296.293,162.783,524.443,41.5,765.335,53.937
					C417.167,70.162,143.013,356.865,142.417,705.416C141.82,1053.979,414.961,1341.646,763.081,1359.06z"/>
			</g>
			<g id="Outline">
				<path id="Shape_5_" fill="#FFFFFF" d="M394.665,161.84C173.975,290.032,51.202,537.654,82.767,790.914
					c42.248,318.414,317.196,554.072,638.323,547.14c155-4.196,303.246-64.301,417.368-169.236
					c174.115-159.571,244.001-403.355,180.848-630.943c-63.152-227.59-248.659-400.503-480.101-447.541
					C687.272,59.363,529.226,84.782,394.665,161.84l-22.602-39.147c144.142-82.577,313.444-109.826,476.26-76.64
					c247.664,50.991,445.951,236.311,513.564,479.958c67.632,243.647-6.776,504.646-192.746,676.005
					c-122.245,112.42-281.087,176.808-447.103,181.225c-253.073,6.158-488.223-130.169-608.634-352.847
					C-7.029,807.713,7.628,536.296,151.327,327.889c57.435-83.957,132.838-154.052,220.735-205.196L394.665,161.84z"/>
				<path id="Shape_6_" fill="#436BB2" d="M848.322,46.052c-162.816-33.186-332.118-5.937-476.26,76.64l-39.269,25.352
					l-19.581,12.769l-18.275,14.58c-4.813,3.676-7.946,9.162-8.654,15.187c-0.706,6.026,1.039,12.074,4.858,16.788
					c7.813,9.481,21.719,11.136,31.52,3.742l17.041-13.642l18.299-11.898l36.664-23.729
					C529.226,84.782,687.272,59.363,839.205,90.333c231.067,47.579,416.064,220.482,479.151,447.805
					c63.085,227.323-6.379,470.841-179.898,630.679c-114.122,104.936-262.368,165.04-417.368,169.236
					c-236.143,5.784-455.577-121.405-567.931-329.182C40.803,801.09,54.512,547.829,188.653,353.395l12.317-18.011
					c6.886-9.989,4.965-23.587-4.415-31.269c-4.768-3.852-10.927-5.563-16.975-4.712c-6.048,0.849-11.523,4.171-15.032,9.181
					l-13.221,19.304C8.158,536.396-6.234,807.513,114.088,1029.993c120.322,222.504,355.076,358.919,607.95,353.246
					c166.016-4.417,324.857-68.805,447.103-181.225c186.563-171.093,261.416-432.357,193.716-676.269
					C1295.157,281.831,1096.363,96.502,848.322,46.052z"/>
				<path id="Shape_7_" fill="#436BB2" d="M225.583,269.471c9.181,8.089,22.999,7.924,31.961-0.397
					c4.063-4.15,6.401-9.713,6.49-15.519l-0.465-4.292c-0.286-1.502-0.75-2.958-1.389-4.338c-0.442-1.367-1.06-2.67-1.876-3.863
					c-0.862-1.258-1.788-2.451-2.804-3.575c-4.193-4.294-9.891-6.767-15.894-6.898c-12.603,0.419-22.8,10.407-23.486,23.001
					c0.177,3.024,0.95,5.982,2.295,8.686C221.653,264.99,223.418,267.439,225.583,269.471z"/>
				<path id="Shape_8_" fill="#436BB2" d="M709.7,1292.361c322.628-1.546,583.093-264.086,582.035-586.738
					c-1.015-322.651-263.16-583.516-585.789-582.986C383.297,123.145,122.012,384.85,122.012,707.5
					C123.161,1031.143,386.057,1292.756,709.7,1292.361z M709.7,167.843c297.684,1.556,537.89,243.858,536.831,541.535
					c-1.018,297.682-242.898,538.306-540.585,537.778c-297.685-0.509-538.726-241.973-538.726-539.656
					C168.346,408.822,411.021,167.403,709.7,167.843z"/>
				<path id="Shape_9_" fill="#436BB2" d="M553.065,998.606c14.745,7.728,32.536,6.621,46.2-2.893l362.25-251
					c12.184-8.475,19.426-22.384,19.426-37.213c0-14.846-7.263-28.752-19.449-37.229L599.288,419.285
					c-13.687-9.503-31.478-10.606-46.223-2.881c-14.921,7.804-24.236,23.277-24.192,40.108v501.965
					C528.829,975.318,538.145,990.792,553.065,998.606z M574.08,456.821l361.675,250.757L574.08,958.477V456.821z"/>
			</g>
		</g>
	</g>
</g>
<g id="Layer_4" display="none">
	<g display="inline">
		<circle fill="#4487C7" cx="-290.29" cy="1246.869" r="27.5"/>
		<circle fill="#3266AF" cx="-290.29" cy="1312.869" r="27.5"/>
	</g>
	<g display="inline">
		<circle fill="#D1D1D1" cx="-224.623" cy="1312.869" r="27.5"/>
		<circle fill="#4E4E4E" cx="-224.623" cy="1246.869" r="27.5"/>
	</g>
</g>
</svg>
